<svg width="81" height="60" viewBox="0 0 81 60" fill="none" xmlns="http://www.w3.org/2000/svg">
<path fill-rule="evenodd" clip-rule="evenodd" d="M77.2 12C68.4 12.6 60.9 18.1 57.3 25.7H68.7C73.4 25.7 77.3 29.5 77.3 34.3V51.4C77.3 56.1 73.5 60 68.7 60H51.4C46.7 60 42.8 56.2 42.8 51.4V34.3C42.8 15.4 58.2 0 77.1 0C77.1 0 80.5 -4.76837e-07 80.5 3.4C80.5 3.4 80.5 4 80.5 8.5C80.6 12 77.2 12 77.2 12ZM34.3 12C25.5 12.6 18 18.1 14.4 25.7H25.8C30.5 25.7 34.4 29.5 34.4 34.3V51.4C34.4 56.1 30.6 60 25.8 60H8.6C3.9 60 0 56.2 0 51.4V34.3C0 15.4 15.4 0 34.3 0C34.3 0 37.7 -4.76837e-07 37.7 3.4C37.7 3.4 37.7 4 37.7 8.5C37.7 12 34.3 12 34.3 12Z" fill="#65BD50"/>
</svg>
